<mxfile host="www.draw.io" modified="2023-05-16T20:53:09.558Z" agent="Mozilla/5.0 (X11; Linux x86_64; rv:102.0) Gecko/20100101 Firefox/102.0" etag="GG6cOXo60IfllfSJk_fm" version="21.3.2" type="device">
  <diagram id="C5RBs43oDa-KdzZeNtuy" name="Page-1">
    <mxGraphModel dx="980" dy="1050" grid="1" gridSize="10" guides="1" tooltips="1" connect="1" arrows="1" fold="1" page="1" pageScale="1" pageWidth="827" pageHeight="1169" math="0" shadow="0">
      <root>
        <mxCell id="WIyWlLk6GJQsqaUBKTNV-0" />
        <mxCell id="WIyWlLk6GJQsqaUBKTNV-1" parent="WIyWlLk6GJQsqaUBKTNV-0" />
        <mxCell id="zkfFHV4jXpPFQw0GAbJ--0" value="AES" style="swimlane;fontStyle=2;align=center;verticalAlign=top;childLayout=stackLayout;horizontal=1;startSize=26;horizontalStack=0;resizeParent=1;resizeLast=0;collapsible=1;marginBottom=0;rounded=0;shadow=0;strokeWidth=1;whiteSpace=wrap;" parent="WIyWlLk6GJQsqaUBKTNV-1" vertex="1">
          <mxGeometry x="310" y="10" width="250" height="500" as="geometry">
            <mxRectangle x="230" y="140" width="160" height="26" as="alternateBounds" />
          </mxGeometry>
        </mxCell>
        <mxCell id="zkfFHV4jXpPFQw0GAbJ--1" value="# key: uint8_t*&#xa;# salt: uint8_t*&#xa;# encryptedData: uint8_t*&#xa;# decryptedData: uint8_t*&#xa;" style="text;align=left;verticalAlign=top;spacingLeft=4;spacingRight=4;overflow=hidden;rotatable=0;points=[[0,0.5],[1,0.5]];portConstraint=eastwest;whiteSpace=wrap;" parent="zkfFHV4jXpPFQw0GAbJ--0" vertex="1">
          <mxGeometry y="26" width="250" height="64" as="geometry" />
        </mxCell>
        <mxCell id="eHBe3cfuq-1J82YxRXju-6" value="# const SBOX: uint8_t[16][16]&#xa;# const INVSBOX: uint8_t[16][16]&#xa;# const RCON: uint8_t[32]" style="text;align=left;verticalAlign=top;spacingLeft=4;spacingRight=4;overflow=hidden;rotatable=0;points=[[0,0.5],[1,0.5]];portConstraint=eastwest;whiteSpace=wrap;fontStyle=4" vertex="1" parent="zkfFHV4jXpPFQw0GAbJ--0">
          <mxGeometry y="90" width="250" height="60" as="geometry" />
        </mxCell>
        <mxCell id="zkfFHV4jXpPFQw0GAbJ--4" value="" style="line;html=1;strokeWidth=1;align=left;verticalAlign=middle;spacingTop=-1;spacingLeft=3;spacingRight=3;rotatable=0;labelPosition=right;points=[];portConstraint=eastwest;" parent="zkfFHV4jXpPFQw0GAbJ--0" vertex="1">
          <mxGeometry y="150" width="250" height="8" as="geometry" />
        </mxCell>
        <mxCell id="zkfFHV4jXpPFQw0GAbJ--5" value="# rotWord(uint8_t (&amp;word)[4]): void &#xa;# subWord(uint8_t (&amp;word)[4]): void&#xa;# invSubWord(uint8_t (&amp;word)[4]): void&#xa;# shiftRows(uint8_t (&amp;chunk)[4][4]): void&#xa;# invShiftRows(uint8_t (&amp;chunk)[4][4]): void" style="text;align=left;verticalAlign=top;spacingLeft=4;spacingRight=4;overflow=hidden;rotatable=0;points=[[0,0.5],[1,0.5]];portConstraint=eastwest;whiteSpace=wrap;" parent="zkfFHV4jXpPFQw0GAbJ--0" vertex="1">
          <mxGeometry y="158" width="250" height="82" as="geometry" />
        </mxCell>
        <mxCell id="eHBe3cfuq-1J82YxRXju-9" value="# mixColumnsMultiplicator(uint8_t bt, uint8_t mult): uint8_t" style="text;align=left;verticalAlign=top;spacingLeft=4;spacingRight=4;overflow=hidden;rotatable=0;points=[[0,0.5],[1,0.5]];portConstraint=eastwest;whiteSpace=wrap;fontStyle=4" vertex="1" parent="zkfFHV4jXpPFQw0GAbJ--0">
          <mxGeometry y="240" width="250" height="40" as="geometry" />
        </mxCell>
        <mxCell id="eHBe3cfuq-1J82YxRXju-10" value="# mixColumns(uint8_t (&amp;chunk)[4][4]): void&#xa;# invMixColumns(uint8_t (&amp;chunk)[4][4]): void&#xa;# {virtual} expandKey(): void&#xa;# generateSalt(): void&#xa;# addPadding(): void&#xa;# removePadding(): void&#xa;+ {virtual} generateKey(): uint8_t*&#xa;+ {virtual} encrypt(): uint8_t* &#xa;+ {virtual} encrypt(uint8_t[32] givenKey): uint8_t* &#xa;+ {virtual} decrypt(): uint8_t* &#xa;+ {virtual} decrypt(uint8_t[32] givenKey): uint8_t* " style="text;align=left;verticalAlign=top;spacingLeft=4;spacingRight=4;overflow=hidden;rotatable=0;points=[[0,0.5],[1,0.5]];portConstraint=eastwest;whiteSpace=wrap;" vertex="1" parent="zkfFHV4jXpPFQw0GAbJ--0">
          <mxGeometry y="280" width="250" height="210" as="geometry" />
        </mxCell>
        <mxCell id="zkfFHV4jXpPFQw0GAbJ--6" value="AES128" style="swimlane;fontStyle=0;align=center;verticalAlign=top;childLayout=stackLayout;horizontal=1;startSize=26;horizontalStack=0;resizeParent=1;resizeLast=0;collapsible=1;marginBottom=0;rounded=0;shadow=0;strokeWidth=1;" parent="WIyWlLk6GJQsqaUBKTNV-1" vertex="1">
          <mxGeometry x="20" y="584.5" width="270" height="230" as="geometry">
            <mxRectangle x="130" y="380" width="160" height="26" as="alternateBounds" />
          </mxGeometry>
        </mxCell>
        <mxCell id="zkfFHV4jXpPFQw0GAbJ--7" value="- const ROUNDCOUNT = 10: int&#xa;- const KEYLENGTH = 16: int" style="text;align=left;verticalAlign=top;spacingLeft=4;spacingRight=4;overflow=hidden;rotatable=0;points=[[0,0.5],[1,0.5]];portConstraint=eastwest;fontStyle=4" parent="zkfFHV4jXpPFQw0GAbJ--6" vertex="1">
          <mxGeometry y="26" width="270" height="34" as="geometry" />
        </mxCell>
        <mxCell id="eHBe3cfuq-1J82YxRXju-11" value="# expandedKey: uint_8t[176]" style="text;align=left;verticalAlign=top;spacingLeft=4;spacingRight=4;overflow=hidden;rotatable=0;points=[[0,0.5],[1,0.5]];portConstraint=eastwest;" vertex="1" parent="zkfFHV4jXpPFQw0GAbJ--6">
          <mxGeometry y="60" width="270" height="20" as="geometry" />
        </mxCell>
        <mxCell id="zkfFHV4jXpPFQw0GAbJ--9" value="" style="line;html=1;strokeWidth=1;align=left;verticalAlign=middle;spacingTop=-1;spacingLeft=3;spacingRight=3;rotatable=0;labelPosition=right;points=[];portConstraint=eastwest;" parent="zkfFHV4jXpPFQw0GAbJ--6" vertex="1">
          <mxGeometry y="80" width="270" height="8" as="geometry" />
        </mxCell>
        <mxCell id="zkfFHV4jXpPFQw0GAbJ--11" value="# expandKey(): void&#xa;+ AES128(uin8_t* key = nullpointer, uint8_t* encryptedData = nullpointer, uint8_t* decryptedData = nullpointer)&#xa;+ generateKey(): uint_8t*&#xa;+ encrypt(): uint_8t* &#xa;+ encrypt(uint_8t[32] givenKey): uint_8t* &#xa;+ decrypt(): uint_8t* &#xa;+ decrypt(uint_8t[32] givenKey): uint_8t* " style="text;align=left;verticalAlign=top;spacingLeft=4;spacingRight=4;overflow=hidden;rotatable=0;points=[[0,0.5],[1,0.5]];portConstraint=eastwest;whiteSpace=wrap;" parent="zkfFHV4jXpPFQw0GAbJ--6" vertex="1">
          <mxGeometry y="88" width="270" height="136" as="geometry" />
        </mxCell>
        <mxCell id="zkfFHV4jXpPFQw0GAbJ--12" value="" style="endArrow=block;endSize=10;endFill=0;shadow=0;strokeWidth=1;rounded=0;edgeStyle=elbowEdgeStyle;elbow=vertical;entryX=0.5;entryY=1;entryDx=0;entryDy=0;" parent="WIyWlLk6GJQsqaUBKTNV-1" source="zkfFHV4jXpPFQw0GAbJ--6" target="zkfFHV4jXpPFQw0GAbJ--0" edge="1">
          <mxGeometry width="160" relative="1" as="geometry">
            <mxPoint x="200" y="3" as="sourcePoint" />
            <mxPoint x="390" y="520" as="targetPoint" />
          </mxGeometry>
        </mxCell>
        <mxCell id="eHBe3cfuq-1J82YxRXju-12" value="AES192" style="swimlane;fontStyle=0;align=center;verticalAlign=top;childLayout=stackLayout;horizontal=1;startSize=26;horizontalStack=0;resizeParent=1;resizeLast=0;collapsible=1;marginBottom=0;rounded=0;shadow=0;strokeWidth=1;" vertex="1" parent="WIyWlLk6GJQsqaUBKTNV-1">
          <mxGeometry x="300" y="584.5" width="270" height="230" as="geometry">
            <mxRectangle x="130" y="380" width="160" height="26" as="alternateBounds" />
          </mxGeometry>
        </mxCell>
        <mxCell id="eHBe3cfuq-1J82YxRXju-13" value="- const ROUNDCOUNT = 12: int&#xa;- const KEYLENGTH = 24: int" style="text;align=left;verticalAlign=top;spacingLeft=4;spacingRight=4;overflow=hidden;rotatable=0;points=[[0,0.5],[1,0.5]];portConstraint=eastwest;fontStyle=4" vertex="1" parent="eHBe3cfuq-1J82YxRXju-12">
          <mxGeometry y="26" width="270" height="34" as="geometry" />
        </mxCell>
        <mxCell id="eHBe3cfuq-1J82YxRXju-14" value="# expandedKey: uint_8t[208]" style="text;align=left;verticalAlign=top;spacingLeft=4;spacingRight=4;overflow=hidden;rotatable=0;points=[[0,0.5],[1,0.5]];portConstraint=eastwest;" vertex="1" parent="eHBe3cfuq-1J82YxRXju-12">
          <mxGeometry y="60" width="270" height="20" as="geometry" />
        </mxCell>
        <mxCell id="eHBe3cfuq-1J82YxRXju-15" value="" style="line;html=1;strokeWidth=1;align=left;verticalAlign=middle;spacingTop=-1;spacingLeft=3;spacingRight=3;rotatable=0;labelPosition=right;points=[];portConstraint=eastwest;" vertex="1" parent="eHBe3cfuq-1J82YxRXju-12">
          <mxGeometry y="80" width="270" height="8" as="geometry" />
        </mxCell>
        <mxCell id="eHBe3cfuq-1J82YxRXju-16" value="# expandKey(): void&#xa;+ AES128(uin8_t* key = nullpointer, uint8_t* encryptedData = nullpointer, uint8_t* decryptedData = nullpointer)&#xa;+ generateKey(): uint_8t*&#xa;+ encrypt(): uint_8t* &#xa;+ encrypt(uint_8t[32] givenKey): uint_8t* &#xa;+ decrypt(): uint_8t* &#xa;+ decrypt(uint_8t[32] givenKey): uint_8t* " style="text;align=left;verticalAlign=top;spacingLeft=4;spacingRight=4;overflow=hidden;rotatable=0;points=[[0,0.5],[1,0.5]];portConstraint=eastwest;whiteSpace=wrap;" vertex="1" parent="eHBe3cfuq-1J82YxRXju-12">
          <mxGeometry y="88" width="270" height="136" as="geometry" />
        </mxCell>
        <mxCell id="eHBe3cfuq-1J82YxRXju-17" value="AES256" style="swimlane;fontStyle=0;align=center;verticalAlign=top;childLayout=stackLayout;horizontal=1;startSize=26;horizontalStack=0;resizeParent=1;resizeLast=0;collapsible=1;marginBottom=0;rounded=0;shadow=0;strokeWidth=1;" vertex="1" parent="WIyWlLk6GJQsqaUBKTNV-1">
          <mxGeometry x="580" y="584.5" width="270" height="230" as="geometry">
            <mxRectangle x="130" y="380" width="160" height="26" as="alternateBounds" />
          </mxGeometry>
        </mxCell>
        <mxCell id="eHBe3cfuq-1J82YxRXju-18" value="- const ROUNDCOUNT = 14: int&#xa;- const KEYLENGTH = 32: int" style="text;align=left;verticalAlign=top;spacingLeft=4;spacingRight=4;overflow=hidden;rotatable=0;points=[[0,0.5],[1,0.5]];portConstraint=eastwest;fontStyle=4" vertex="1" parent="eHBe3cfuq-1J82YxRXju-17">
          <mxGeometry y="26" width="270" height="34" as="geometry" />
        </mxCell>
        <mxCell id="eHBe3cfuq-1J82YxRXju-19" value="# expandedKey: uint_8t[240]" style="text;align=left;verticalAlign=top;spacingLeft=4;spacingRight=4;overflow=hidden;rotatable=0;points=[[0,0.5],[1,0.5]];portConstraint=eastwest;" vertex="1" parent="eHBe3cfuq-1J82YxRXju-17">
          <mxGeometry y="60" width="270" height="20" as="geometry" />
        </mxCell>
        <mxCell id="eHBe3cfuq-1J82YxRXju-20" value="" style="line;html=1;strokeWidth=1;align=left;verticalAlign=middle;spacingTop=-1;spacingLeft=3;spacingRight=3;rotatable=0;labelPosition=right;points=[];portConstraint=eastwest;" vertex="1" parent="eHBe3cfuq-1J82YxRXju-17">
          <mxGeometry y="80" width="270" height="8" as="geometry" />
        </mxCell>
        <mxCell id="eHBe3cfuq-1J82YxRXju-21" value="# expandKey(): void&#xa;+ AES128(uin8_t* key = nullpointer, uint8_t* encryptedData = nullpointer, uint8_t* decryptedData = nullpointer)&#xa;+ generateKey(): uint_8t*&#xa;+ encrypt(): uint_8t* &#xa;+ encrypt(uint_8t[32] givenKey): uint_8t* &#xa;+ decrypt(): uint_8t* &#xa;+ decrypt(uint_8t[32] givenKey): uint_8t* " style="text;align=left;verticalAlign=top;spacingLeft=4;spacingRight=4;overflow=hidden;rotatable=0;points=[[0,0.5],[1,0.5]];portConstraint=eastwest;whiteSpace=wrap;" vertex="1" parent="eHBe3cfuq-1J82YxRXju-17">
          <mxGeometry y="88" width="270" height="136" as="geometry" />
        </mxCell>
        <mxCell id="eHBe3cfuq-1J82YxRXju-22" value="AES128CBC" style="swimlane;fontStyle=0;align=center;verticalAlign=top;childLayout=stackLayout;horizontal=1;startSize=26;horizontalStack=0;resizeParent=1;resizeLast=0;collapsible=1;marginBottom=0;rounded=0;shadow=0;strokeWidth=1;" vertex="1" parent="WIyWlLk6GJQsqaUBKTNV-1">
          <mxGeometry x="20" y="870" width="270" height="190" as="geometry">
            <mxRectangle x="130" y="380" width="160" height="26" as="alternateBounds" />
          </mxGeometry>
        </mxCell>
        <mxCell id="eHBe3cfuq-1J82YxRXju-24" value="- iv: uint_8t*" style="text;align=left;verticalAlign=top;spacingLeft=4;spacingRight=4;overflow=hidden;rotatable=0;points=[[0,0.5],[1,0.5]];portConstraint=eastwest;" vertex="1" parent="eHBe3cfuq-1J82YxRXju-22">
          <mxGeometry y="26" width="270" height="20" as="geometry" />
        </mxCell>
        <mxCell id="eHBe3cfuq-1J82YxRXju-25" value="" style="line;html=1;strokeWidth=1;align=left;verticalAlign=middle;spacingTop=-1;spacingLeft=3;spacingRight=3;rotatable=0;labelPosition=right;points=[];portConstraint=eastwest;" vertex="1" parent="eHBe3cfuq-1J82YxRXju-22">
          <mxGeometry y="46" width="270" height="8" as="geometry" />
        </mxCell>
        <mxCell id="eHBe3cfuq-1J82YxRXju-26" value="+ AES128CBC(uint8_t* key = nullpointer, uint8_t* encryptedData = nullpointer, uint8_t* decryptedData = nullpointer, uint8_t* iv = nullpointer)&#xa;+ encrypt(): uint_8t* &#xa;+ encrypt(uint_8t[32] givenKey): uint_8t* &#xa;+ decrypt(): uint_8t* &#xa;+ decrypt(uint_8t[32] givenKey): uint_8t* " style="text;align=left;verticalAlign=top;spacingLeft=4;spacingRight=4;overflow=hidden;rotatable=0;points=[[0,0.5],[1,0.5]];portConstraint=eastwest;whiteSpace=wrap;" vertex="1" parent="eHBe3cfuq-1J82YxRXju-22">
          <mxGeometry y="54" width="270" height="126" as="geometry" />
        </mxCell>
        <mxCell id="eHBe3cfuq-1J82YxRXju-27" value="AES128CBC" style="swimlane;fontStyle=0;align=center;verticalAlign=top;childLayout=stackLayout;horizontal=1;startSize=26;horizontalStack=0;resizeParent=1;resizeLast=0;collapsible=1;marginBottom=0;rounded=0;shadow=0;strokeWidth=1;" vertex="1" parent="WIyWlLk6GJQsqaUBKTNV-1">
          <mxGeometry x="300" y="870" width="270" height="190" as="geometry">
            <mxRectangle x="130" y="380" width="160" height="26" as="alternateBounds" />
          </mxGeometry>
        </mxCell>
        <mxCell id="eHBe3cfuq-1J82YxRXju-28" value="- iv: uint_8t*" style="text;align=left;verticalAlign=top;spacingLeft=4;spacingRight=4;overflow=hidden;rotatable=0;points=[[0,0.5],[1,0.5]];portConstraint=eastwest;" vertex="1" parent="eHBe3cfuq-1J82YxRXju-27">
          <mxGeometry y="26" width="270" height="20" as="geometry" />
        </mxCell>
        <mxCell id="eHBe3cfuq-1J82YxRXju-29" value="" style="line;html=1;strokeWidth=1;align=left;verticalAlign=middle;spacingTop=-1;spacingLeft=3;spacingRight=3;rotatable=0;labelPosition=right;points=[];portConstraint=eastwest;" vertex="1" parent="eHBe3cfuq-1J82YxRXju-27">
          <mxGeometry y="46" width="270" height="8" as="geometry" />
        </mxCell>
        <mxCell id="eHBe3cfuq-1J82YxRXju-30" value="+ AES128CBC(uint8_t* key = nullpointer, uint8_t* encryptedData = nullpointer, uint8_t* decryptedData = nullpointer, uint8_t* iv = nullpointer)&#xa;+ encrypt(): uint_8t* &#xa;+ encrypt(uint_8t[32] givenKey): uint_8t* &#xa;+ decrypt(): uint_8t* &#xa;+ decrypt(uint_8t[32] givenKey): uint_8t* " style="text;align=left;verticalAlign=top;spacingLeft=4;spacingRight=4;overflow=hidden;rotatable=0;points=[[0,0.5],[1,0.5]];portConstraint=eastwest;whiteSpace=wrap;" vertex="1" parent="eHBe3cfuq-1J82YxRXju-27">
          <mxGeometry y="54" width="270" height="126" as="geometry" />
        </mxCell>
        <mxCell id="eHBe3cfuq-1J82YxRXju-31" value="AES128CBC" style="swimlane;fontStyle=0;align=center;verticalAlign=top;childLayout=stackLayout;horizontal=1;startSize=26;horizontalStack=0;resizeParent=1;resizeLast=0;collapsible=1;marginBottom=0;rounded=0;shadow=0;strokeWidth=1;" vertex="1" parent="WIyWlLk6GJQsqaUBKTNV-1">
          <mxGeometry x="580" y="870" width="270" height="190" as="geometry">
            <mxRectangle x="130" y="380" width="160" height="26" as="alternateBounds" />
          </mxGeometry>
        </mxCell>
        <mxCell id="eHBe3cfuq-1J82YxRXju-32" value="- iv: uint_8t*" style="text;align=left;verticalAlign=top;spacingLeft=4;spacingRight=4;overflow=hidden;rotatable=0;points=[[0,0.5],[1,0.5]];portConstraint=eastwest;" vertex="1" parent="eHBe3cfuq-1J82YxRXju-31">
          <mxGeometry y="26" width="270" height="20" as="geometry" />
        </mxCell>
        <mxCell id="eHBe3cfuq-1J82YxRXju-33" value="" style="line;html=1;strokeWidth=1;align=left;verticalAlign=middle;spacingTop=-1;spacingLeft=3;spacingRight=3;rotatable=0;labelPosition=right;points=[];portConstraint=eastwest;" vertex="1" parent="eHBe3cfuq-1J82YxRXju-31">
          <mxGeometry y="46" width="270" height="8" as="geometry" />
        </mxCell>
        <mxCell id="eHBe3cfuq-1J82YxRXju-34" value="+ AES128CBC(uint8_t* key = nullpointer, uint8_t* encryptedData = nullpointer, uint8_t* decryptedData = nullpointer, uint8_t* iv = nullpointer)&#xa;+ encrypt(): uint_8t* &#xa;+ encrypt(uint_8t[32] givenKey): uint_8t* &#xa;+ decrypt(): uint_8t* &#xa;+ decrypt(uint_8t[32] givenKey): uint_8t* " style="text;align=left;verticalAlign=top;spacingLeft=4;spacingRight=4;overflow=hidden;rotatable=0;points=[[0,0.5],[1,0.5]];portConstraint=eastwest;whiteSpace=wrap;" vertex="1" parent="eHBe3cfuq-1J82YxRXju-31">
          <mxGeometry y="54" width="270" height="126" as="geometry" />
        </mxCell>
        <mxCell id="eHBe3cfuq-1J82YxRXju-35" value="" style="endArrow=block;endSize=10;endFill=0;shadow=0;strokeWidth=1;rounded=0;edgeStyle=elbowEdgeStyle;elbow=vertical;exitX=0.5;exitY=0;exitDx=0;exitDy=0;entryX=0.5;entryY=1;entryDx=0;entryDy=0;" edge="1" parent="WIyWlLk6GJQsqaUBKTNV-1" source="eHBe3cfuq-1J82YxRXju-12" target="zkfFHV4jXpPFQw0GAbJ--0">
          <mxGeometry width="160" relative="1" as="geometry">
            <mxPoint x="440" y="575" as="sourcePoint" />
            <mxPoint x="675" y="510" as="targetPoint" />
          </mxGeometry>
        </mxCell>
        <mxCell id="eHBe3cfuq-1J82YxRXju-36" value="" style="endArrow=block;endSize=10;endFill=0;shadow=0;strokeWidth=1;rounded=0;edgeStyle=elbowEdgeStyle;elbow=vertical;entryX=0.5;entryY=1;entryDx=0;entryDy=0;exitX=0.534;exitY=0.005;exitDx=0;exitDy=0;exitPerimeter=0;" edge="1" parent="WIyWlLk6GJQsqaUBKTNV-1" source="eHBe3cfuq-1J82YxRXju-17" target="zkfFHV4jXpPFQw0GAbJ--0">
          <mxGeometry width="160" relative="1" as="geometry">
            <mxPoint x="580" y="564" as="sourcePoint" />
            <mxPoint x="860" y="490" as="targetPoint" />
            <Array as="points">
              <mxPoint x="610" y="550" />
              <mxPoint x="610" y="540" />
              <mxPoint x="985" y="530" />
            </Array>
          </mxGeometry>
        </mxCell>
        <mxCell id="eHBe3cfuq-1J82YxRXju-38" value="" style="endArrow=block;endSize=10;endFill=0;shadow=0;strokeWidth=1;rounded=0;edgeStyle=elbowEdgeStyle;elbow=vertical;entryX=0.5;entryY=1;entryDx=0;entryDy=0;exitX=0.5;exitY=0;exitDx=0;exitDy=0;" edge="1" parent="WIyWlLk6GJQsqaUBKTNV-1" source="eHBe3cfuq-1J82YxRXju-22" target="zkfFHV4jXpPFQw0GAbJ--6">
          <mxGeometry width="160" relative="1" as="geometry">
            <mxPoint x="150" y="865" as="sourcePoint" />
            <mxPoint x="430" y="790" as="targetPoint" />
          </mxGeometry>
        </mxCell>
        <mxCell id="eHBe3cfuq-1J82YxRXju-39" value="" style="endArrow=block;endSize=10;endFill=0;shadow=0;strokeWidth=1;rounded=0;edgeStyle=elbowEdgeStyle;elbow=vertical;entryX=0.5;entryY=1;entryDx=0;entryDy=0;exitX=0.5;exitY=0;exitDx=0;exitDy=0;" edge="1" parent="WIyWlLk6GJQsqaUBKTNV-1" source="eHBe3cfuq-1J82YxRXju-27" target="eHBe3cfuq-1J82YxRXju-12">
          <mxGeometry width="160" relative="1" as="geometry">
            <mxPoint x="450" y="880" as="sourcePoint" />
            <mxPoint x="450" y="825" as="targetPoint" />
          </mxGeometry>
        </mxCell>
        <mxCell id="eHBe3cfuq-1J82YxRXju-40" value="" style="endArrow=block;endSize=10;endFill=0;shadow=0;strokeWidth=1;rounded=0;edgeStyle=elbowEdgeStyle;elbow=vertical;entryX=0.5;entryY=1;entryDx=0;entryDy=0;exitX=0.5;exitY=0;exitDx=0;exitDy=0;" edge="1" parent="WIyWlLk6GJQsqaUBKTNV-1" source="eHBe3cfuq-1J82YxRXju-31" target="eHBe3cfuq-1J82YxRXju-17">
          <mxGeometry width="160" relative="1" as="geometry">
            <mxPoint x="680" y="870" as="sourcePoint" />
            <mxPoint x="680" y="815" as="targetPoint" />
          </mxGeometry>
        </mxCell>
      </root>
    </mxGraphModel>
  </diagram>
</mxfile>
